<svg   
xmlns="http://www.w3.org/2000/svg" 
viewBox="0 0 428.5 512" 
style="enable-background:new 0 0 428.5 512" 
xml:space="preserve">
<path d="M5 5.7v1c.6 9.3 1.2 18.7 1.9 28 .4 5.8.8 11.5 1.3 17.3.4 5.2.9 10.3 1.3 15.5.4 5.2.8 10.3 1.3 15.5.5 6.2 1 12.3 1.5 18.5.4 4.6.7 9.3 1.1 13.9.5 6.3 1.1 12.6 1.6 18.8.5 5.9 1 11.7 1.5 17.6.6 7 1.2 14 1.8 20.9.5 5.7.9 11.5 1.4 17.3.4 4.9.9 9.7 1.3 14.6l1.2 14.4c.5 6.2 1.1 12.4 1.6 18.7.4 4.6.7 9.2 1.1 13.7.5 6 1.1 12.1 1.6 18.1.5 5.8.9 11.6 1.4 17.4.8 9.3 1.7 18.6 2.5 28 .5 6.2 1 12.4 1.5 18.7.6 7.4 1.4 14.8 2 22.2.6 7.5 1.1 14.9 1.8 22.4.9 11 1.9 22 2.9 33.1.5 5.7 1 11.5 1.5 17.2l1.2 14.4c.3 3.5.6 7 1 10.5.1.5.7 1.1 1.2 1.3l35.4 10.5c11.3 3.3 22.6 6.7 34 10 14.1 4.1 28.2 8.2 42.2 12.3 12.5 3.7 25 7.4 37.4 11.1 5.7 1.6 11.3 3.1 17 4.6 1.3.3 2.7.5 4.1.3 1.8-.2 3.5-.9 5.2-1.3l46.2-12.9c15.6-4.4 31.1-9 46.7-13.6 10.7-3.1 21.4-6.3 32.1-9.5 9-2.7 18-5.3 26.9-8.2 3.7-1.2 7.4-2.7 11.1-4.2 2-.8 2.9-2.1 3-4.5.1-4.2.7-8.4 1.1-12.7.7-7.8 1.5-15.6 2.2-23.4.6-7.2 1.2-14.3 1.8-21.5.6-7.3 1.3-14.7 1.9-22 .6-7.4 1.1-14.8 1.8-22.2l2.4-26.7c.5-5.9 1-11.9 1.5-17.8.8-9.5 1.7-19 2.5-28.5l1.8-22.2c.7-8.8 1.6-17.6 2.3-26.4.6-7.6 1.2-15.3 1.8-22.9.8-9 1.6-17.9 2.3-26.9.8-9.5 1.6-18.9 2.4-28.4.5-6 1.1-12.1 1.6-18.1.5-6.2 1-12.5 1.5-18.7.6-7.7 1.4-15.5 2-23.2.5-6 .9-12 1.4-18 .5-6.4 1.1-12.8 1.7-19.1.8-9.9 1.7-19.7 2.5-29.6.4-5 .7-10.1 1-15.3H5z" style="fill:#c8202f"/><path style="opacity:.73;fill:#ef3a25" d="m367 432.6-153.3 43.8 5.8-444.6h180.3z"/><path d="M379.1 251.8c-.7-4.3-2.6-7.9-5.3-10.9-18.6-20.8-37.1-41.6-55.7-62.5-4.4-5.1-8.9-10.1-13.2-15.2-3.1-3.6-6.8-6.1-11.4-6.8-.1-.1-.3-.2-.4-.3H288c-1 .4-2 .6-3.1 1-3.3 1-6.2 3.1-8.7 5.7-19.6 20.6-41.1 39.3-60.7 59.9v59.7c33.3-34.9 66.5-68.8 99.7-103.6.5-.5.8-1.2 1.1-1.8.2.2.3.4.5.5-.2.6-.4 1.2-.7 1.7-5.8 11.8-11.6 23.6-17.5 35.5-.7 1.3-.6 2 .3 3 10.9 12.2 21.8 24.4 32.7 36.7.4.5.8 1 1.6 1.9-.7.6-1.4 1-1.9 1.5-19.6 20.6-39.2 41.1-58.9 61.7-3.6 3.7-5.9 8-6.6 13.3-1.6 10.6 5.3 21.1 15 22.8 6.8 1.2 12.6-1 17.6-6.2 8.9-9.3 17.8-18.7 26.8-28 15.6-16.4 31.2-32.7 46.8-49 3.7-3.8 6.4-8 7.2-13.5 0-.2.2-.4.3-.6 0-1.4.1-2.8.1-4.2-.2-.9-.4-1.5-.5-2.3z" style="opacity:.89;fill:#f7f7f7"/><path d="M110.4 332.8c-.4.4-.7.7-1.3 1 .2-.6.5-1.2.8-1.8 5.7-11.8 11.3-23.7 16.9-35.4.6-1.3.6-2.1-.4-3.1-11.8-12.4-23.7-24.8-35.5-37.2-.4-.4-1-.7-1.3-1 16.1-16.9 31.9-33.5 47.9-50.2 12.5 13 25.2 26.3 37.7 39.5 9.6-10.1 19.1-20 28.7-30.1-.3-.4-.7-.8-1.2-1.3-16.7-17.5-33.5-35-50.1-52.5-3.4-3.6-7.3-6.3-12.2-7-.1-.1-.3-.2-.4-.3h-5.4c-3 1.3-6 2.4-8.8 3.7-1.4.7-2.6 2.2-3.8 3.4-24.8 26-49.6 52-74.5 78-3.5 3.6-6 7.7-6.7 12.8-.1.1-.2.3-.3.4v5.7l.9 3.3c1.1 3.7 3.2 6.8 5.8 9.6 25 26.1 50 52.3 75 78.5 8.9 9.5 21.1 9.5 30.1 0 21.1-22.1 42.2-44.3 63.4-66.4v-59.7c-35.2 36.7-70.3 73.4-105.3 110.1z" style="fill:#fff"/>
</svg>