<?xml version="1.0" standalone="no"?>
<!DOCTYPE svg PUBLIC "-//W3C//DTD SVG 20010904//EN"
 "http://www.w3.org/TR/2001/REC-SVG-20010904/DTD/svg10.dtd">
<svg version="1.0" xmlns="http://www.w3.org/2000/svg"
 width="260.000000pt" height="260.000000pt" viewBox="0 0 260.000000 260.000000"
 preserveAspectRatio="xMidYMid meet">
<metadata>
Created by potrace 1.14, written by Peter Selinger 2001-2017
</metadata>
<g transform="translate(0.000000,260.000000) scale(0.100000,-0.100000)"
fill="#000000" stroke="none">
<path d="M771 2573 c-5 -11 -10 -65 -9 -119 1 -99 -10 -348 -17 -414 -3 -19
-7 -73 -10 -120 -4 -47 -8 -105 -10 -130 -5 -73 -16 -202 -20 -245 -6 -65 -19
-209 -30 -340 -32 -388 -95 -676 -181 -835 -60 -110 -68 -111 -117 -22 -93
171 -95 478 -4 762 36 116 22 127 -70 53 -200 -161 -284 -339 -283 -603 0 -77
1 -90 21 -175 23 -98 88 -210 157 -271 93 -80 227 -101 335 -51 191 88 325
308 411 677 14 58 28 128 31 155 4 28 8 52 10 55 2 3 6 30 9 60 4 30 9 66 11
80 3 14 7 48 10 75 3 28 8 70 11 95 6 52 11 116 19 240 3 47 8 99 10 115 10
75 19 339 20 535 0 245 -12 310 -71 379 -35 41 -52 47 -160 57 -55 6 -63 4
-73 -13z"/>
<path d="M2217 2513 c-19 -83 -92 -434 -151 -723 -24 -118 -48 -216 -52 -217
-5 -2 -61 -33 -124 -69 -63 -37 -135 -78 -160 -91 -25 -14 -49 -29 -54 -34
-17 -15 -28 -10 -21 11 3 11 8 31 11 45 2 14 18 78 34 143 57 227 98 408 104
454 11 83 -25 133 -162 227 -72 49 -96 51 -110 14 -10 -26 -49 -164 -57 -201
-2 -9 -44 -179 -93 -377 -49 -198 -100 -406 -113 -462 l-24 -101 -77 -47 c-50
-30 -78 -52 -78 -64 0 -22 67 -101 86 -101 19 0 18 -20 -11 -147 -14 -61 -27
-128 -30 -149 -4 -22 -8 -47 -11 -56 -12 -42 -88 -438 -96 -497 -3 -24 4 -41
16 -41 37 0 271 220 304 286 31 61 155 479 223 751 l13 52 187 95 c103 51 190
92 192 89 3 -2 1 -19 -4 -36 -5 -18 -12 -45 -14 -62 -3 -16 -9 -50 -15 -75
-30 -145 -60 -288 -64 -310 -5 -29 -38 -185 -67 -315 -10 -49 -22 -100 -24
-113 -3 -12 -7 -30 -9 -40 -2 -9 -7 -36 -11 -59 -8 -50 4 -59 59 -49 38 7 183
106 215 147 18 23 44 105 81 249 47 185 60 239 64 260 3 14 30 131 61 260 73
305 86 362 90 380 2 8 13 58 25 110 12 52 26 111 30 130 4 19 30 134 58 255
84 365 85 374 40 431 -22 28 -158 97 -215 109 l-31 6 -15 -68z"/>
</g>
</svg>
